{"glyphs":{"0":{"ha":1503,"x_min":0,"x_max":0,"o":"m 1447 507 b 751 -17 1447 178 1174 -17 b 56 507 329 -17 56 178 b 751 1031 56 836 329 1031 b 1447 507 1174 1031 1447 836 m 306 507 b 751 192 306 301 481 192 b 1197 507 1022 192 1197 301 b 751 822 1197 713 1022 822 b 306 507 481 822 306 713 "},"1":{"ha":804,"x_min":0,"x_max":0,"o":"m 464 0 l 464 756 l 46 586 l 42 589 l 42 796 l 510 1003 l 707 1003 l 707 0 "},"2":{"ha":1304,"x_min":0,"x_max":0,"o":"m 42 0 l 42 43 b 608 550 42 297 164 438 b 1013 710 979 644 1013 657 b 693 821 1013 776 893 821 b 96 656 450 821 242 754 l 88 660 l 88 886 b 685 1032 242 981 451 1032 b 1263 699 1050 1032 1263 908 b 753 368 1263 538 1156 463 b 390 208 510 311 414 268 l 1261 208 l 1261 0 "},"3":{"ha":1338,"x_min":0,"x_max":0,"o":"m 1282 307 b 618 -17 1282 104 1035 -17 b 28 115 389 -17 185 29 l 28 344 l 35 349 b 638 193 188 247 397 193 b 1032 328 889 193 1032 242 b 774 424 1032 390 944 424 l 372 424 l 372 622 l 778 622 b 992 706 921 622 992 650 b 633 821 992 774 846 821 b 61 664 403 821 219 771 l 56 668 l 56 896 b 625 1031 224 988 407 1031 b 1242 742 1003 1031 1242 919 b 1093 535 1242 654 1189 581 b 1282 307 1221 493 1282 413 "},"4":{"ha":1386,"x_min":0,"x_max":0,"o":"m 911 754 l 439 433 l 911 433 m 1161 235 l 1161 0 l 911 0 l 911 235 l 42 235 l 42 393 l 940 1003 l 1161 1003 l 1161 433 l 1358 433 l 1358 235 "},"5":{"ha":1388,"x_min":0,"x_max":0,"o":"m 686 -17 b 46 128 431 -17 228 29 l 46 364 l 57 368 b 704 197 219 264 421 197 b 1096 350 954 197 1096 249 b 736 496 1096 446 971 496 b 260 389 579 496 442 472 l 42 529 l 154 1003 l 1215 1003 l 1215 804 l 344 804 l 292 594 b 771 692 482 671 590 692 b 1346 349 1128 692 1346 578 b 686 -17 1346 107 1104 -17 "},"6":{"ha":1443,"x_min":0,"x_max":0,"o":"m 1401 349 b 744 -17 1401 108 1158 -17 b 56 474 299 -17 56 129 b 783 1031 56 831 317 1031 b 1278 947 957 1031 1139 1003 l 1278 731 l 1265 728 b 774 825 1118 788 950 825 b 333 622 531 825 376 754 b 785 696 422 665 583 696 b 1401 349 1193 696 1401 572 m 332 364 b 757 199 332 256 479 199 b 1151 356 1029 199 1151 244 b 740 517 1151 461 1008 517 b 332 364 460 517 332 472 "},"7":{"ha":1221,"x_min":0,"x_max":0,"o":"m 372 0 b 875 803 436 361 589 571 l 14 803 l 14 1003 l 1207 1003 l 1207 824 b 629 0 829 550 683 338 "},"8":{"ha":1450,"x_min":0,"x_max":0,"o":"m 725 -17 b 56 297 293 -17 56 92 b 304 538 56 413 128 485 b 101 750 161 583 101 650 b 725 1031 101 936 322 1031 b 1349 750 1128 1031 1349 936 b 1146 538 1349 650 1289 583 b 1394 297 1322 485 1394 413 b 725 -17 1394 92 1157 -17 m 351 725 b 725 618 351 651 469 618 b 1099 725 981 618 1099 651 b 725 826 1099 794 981 826 b 351 725 469 826 351 794 m 306 321 b 725 192 306 232 438 192 b 1144 321 1013 192 1144 232 b 725 447 1144 407 1013 447 b 306 321 438 447 306 407 "},"9":{"ha":1435,"x_min":0,"x_max":0,"o":"m 1111 651 b 692 815 1111 767 972 815 b 292 658 418 815 292 769 b 696 497 292 544 410 497 b 1111 651 986 497 1111 543 m 42 663 b 714 1031 42 906 301 1031 b 1379 546 1168 1031 1379 876 b 636 -17 1379 182 1092 -17 b 144 65 458 -17 276 10 l 144 283 l 157 286 b 644 189 300 226 468 189 b 1097 392 888 189 1046 260 b 642 318 1004 349 843 318 b 42 663 247 318 42 436 "},"\r":{"ha":833,"x_min":0,"x_max":0,"o":""}," ":{"ha":447,"x_min":0,"x_max":0,"o":""}," ":{"ha":447,"x_min":0,"x_max":0,"o":""},"A":{"ha":1518,"x_min":0,"x_max":0,"o":"m 772 790 l 533 406 l 997 406 m 1117 201 l 408 201 l 283 0 l 0 0 l 639 1003 l 911 1003 l 1518 0 l 1235 0 "},"Á":{"ha":1518,"x_min":0,"x_max":0,"o":"m 772 790 l 533 406 l 997 406 m 1117 201 l 408 201 l 283 0 l 0 0 l 639 1003 l 911 1003 l 1518 0 l 1235 0 "},"Ă":{"ha":1518,"x_min":0,"x_max":0,"o":"m 772 790 l 533 406 l 997 406 m 1117 201 l 408 201 l 283 0 l 0 0 l 639 1003 l 911 1003 l 1518 0 l 1235 0 "},"Â":{"ha":1518,"x_min":0,"x_max":0,"o":"m 772 790 l 533 406 l 997 406 m 1117 201 l 408 201 l 283 0 l 0 0 l 639 1003 l 911 1003 l 1518 0 l 1235 0 "},"Ä":{"ha":1518,"x_min":0,"x_max":0,"o":"m 772 790 l 533 406 l 997 406 m 1117 201 l 408 201 l 283 0 l 0 0 l 639 1003 l 911 1003 l 1518 0 l 1235 0 "},"À":{"ha":1518,"x_min":0,"x_max":0,"o":"m 772 790 l 533 406 l 997 406 m 1117 201 l 408 201 l 283 0 l 0 0 l 639 1003 l 911 1003 l 1518 0 l 1235 0 "},"Ā":{"ha":1518,"x_min":0,"x_max":0,"o":"m 772 790 l 533 406 l 997 406 m 1117 201 l 408 201 l 283 0 l 0 0 l 639 1003 l 911 1003 l 1518 0 l 1235 0 "},"Å":{"ha":1518,"x_min":0,"x_max":0,"o":"m 772 790 l 533 406 l 997 406 m 1117 201 l 408 201 l 283 0 l 0 0 l 639 1003 l 911 1003 l 1518 0 l 1235 0 "},"Ã":{"ha":1518,"x_min":0,"x_max":0,"o":"m 772 790 l 533 406 l 997 406 m 1117 201 l 408 201 l 283 0 l 0 0 l 639 1003 l 911 1003 l 1518 0 l 1235 0 "},"Ą":{"ha":1518,"x_min":0,"x_max":0,"o":"m 772 790 l 533 406 l 997 406 m 1117 201 l 408 201 l 283 0 l 0 0 l 639 1003 l 911 1003 l 1518 0 l 1235 0 "},"B":{"ha":1542,"x_min":0,"x_max":0,"o":"m 375 794 l 375 600 l 949 600 b 1129 697 1069 600 1129 624 b 940 794 1129 768 1078 794 m 375 413 l 375 208 l 1046 208 b 1208 313 1153 208 1208 240 b 1013 413 1208 396 1135 413 m 111 1003 l 944 1003 b 1407 747 1289 1003 1407 903 b 1239 521 1407 640 1349 564 b 1486 283 1406 486 1486 411 b 1017 0 1486 85 1325 0 l 111 0 "},"C":{"ha":1532,"x_min":0,"x_max":0,"o":"m 824 1031 b 1421 894 1051 1031 1240 988 l 1421 669 l 1413 668 b 849 822 1238 764 1049 822 b 319 506 503 822 319 704 b 849 192 319 310 499 192 b 1413 346 1049 192 1238 251 l 1419 344 l 1419 119 b 839 -17 1222 18 1047 -17 b 56 507 346 -17 56 176 b 824 1031 56 838 344 1031 "},"Ć":{"ha":1532,"x_min":0,"x_max":0,"o":"m 824 1031 b 1421 894 1051 1031 1240 988 l 1421 669 l 1413 668 b 849 822 1238 764 1049 822 b 319 506 503 822 319 704 b 849 192 319 310 499 192 b 1413 346 1049 192 1238 251 l 1419 344 l 1419 119 b 839 -17 1222 18 1047 -17 b 56 507 346 -17 56 176 b 824 1031 56 838 344 1031 "},"Č":{"ha":1532,"x_min":0,"x_max":0,"o":"m 824 1031 b 1421 894 1051 1031 1240 988 l 1421 669 l 1413 668 b 849 822 1238 764 1049 822 b 319 506 503 822 319 704 b 849 192 319 310 499 192 b 1413 346 1049 192 1238 251 l 1419 344 l 1419 119 b 839 -17 1222 18 1047 -17 b 56 507 346 -17 56 176 b 824 1031 56 838 344 1031 "},"Ĉ":{"ha":1532,"x_min":0,"x_max":0,"o":"m 824 1031 b 1421 894 1051 1031 1240 988 l 1421 669 l 1413 668 b 849 822 1238 764 1049 822 b 319 506 503 822 319 704 b 849 192 319 310 499 192 b 1413 346 1049 192 1238 251 l 1419 344 l 1419 119 b 839 -17 1222 18 1047 -17 b 56 507 346 -17 56 176 b 824 1031 56 838 344 1031 "},"Ċ":{"ha":1532,"x_min":0,"x_max":0,"o":"m 824 1031 b 1421 894 1051 1031 1240 988 l 1421 669 l 1413 668 b 849 822 1238 764 1049 822 b 319 506 503 822 319 704 b 849 192 319 310 499 192 b 1413 346 1049 192 1238 251 l 1419 344 l 1419 119 b 839 -17 1222 18 1047 -17 b 56 507 346 -17 56 176 b 824 1031 56 838 344 1031 "},"Ç":{"ha":1532,"x_min":0,"x_max":0,"o":"m 824 1031 b 1421 894 1051 1031 1240 988 l 1421 669 l 1413 668 b 849 822 1238 764 1049 822 b 319 506 503 822 319 704 b 849 192 319 310 499 192 b 1413 346 1049 192 1238 251 l 1419 344 l 1419 119 b 839 -17 1222 18 1047 -17 b 56 507 346 -17 56 176 b 824 1031 56 838 344 1031 "},"D":{"ha":1603,"x_min":0,"x_max":0,"o":"m 375 794 l 375 208 l 810 208 b 1279 501 1118 208 1279 294 b 810 794 1279 708 1118 794 m 111 1003 l 822 1003 b 1547 501 1275 1003 1547 818 b 832 0 1547 185 1274 0 l 111 0 "},"Ď":{"ha":1603,"x_min":0,"x_max":0,"o":"m 375 794 l 375 208 l 810 208 b 1279 501 1118 208 1279 294 b 810 794 1279 708 1118 794 m 111 1003 l 822 1003 b 1547 501 1275 1003 1547 818 b 832 0 1547 185 1274 0 l 111 0 "},"Đ":{"ha":1603,"x_min":0,"x_max":0,"o":"m 375 794 l 375 208 l 810 208 b 1279 501 1118 208 1279 294 b 810 794 1279 708 1118 794 m 111 1003 l 822 1003 b 1547 501 1275 1003 1547 818 b 832 0 1547 185 1274 0 l 111 0 "},"E":{"ha":1408,"x_min":0,"x_max":0,"o":"m 111 1003 l 1339 1003 l 1339 799 l 375 799 l 375 601 l 1278 601 l 1278 403 l 375 403 l 375 204 l 1339 204 l 1339 0 l 111 0 "},"É":{"ha":1408,"x_min":0,"x_max":0,"o":"m 111 1003 l 1339 1003 l 1339 799 l 375 799 l 375 601 l 1278 601 l 1278 403 l 375 403 l 375 204 l 1339 204 l 1339 0 l 111 0 "},"Ĕ":{"ha":1408,"x_min":0,"x_max":0,"o":"m 111 1003 l 1339 1003 l 1339 799 l 375 799 l 375 601 l 1278 601 l 1278 403 l 375 403 l 375 204 l 1339 204 l 1339 0 l 111 0 "},"Ě":{"ha":1408,"x_min":0,"x_max":0,"o":"m 111 1003 l 1339 1003 l 1339 799 l 375 799 l 375 601 l 1278 601 l 1278 403 l 375 403 l 375 204 l 1339 204 l 1339 0 l 111 0 "},"Ê":{"ha":1408,"x_min":0,"x_max":0,"o":"m 111 1003 l 1339 1003 l 1339 799 l 375 799 l 375 601 l 1278 601 l 1278 403 l 375 403 l 375 204 l 1339 204 l 1339 0 l 111 0 "},"Ë":{"ha":1408,"x_min":0,"x_max":0,"o":"m 111 1003 l 1339 1003 l 1339 799 l 375 799 l 375 601 l 1278 601 l 1278 403 l 375 403 l 375 204 l 1339 204 l 1339 0 l 111 0 "},"Ė":{"ha":1408,"x_min":0,"x_max":0,"o":"m 111 1003 l 1339 1003 l 1339 799 l 375 799 l 375 601 l 1278 601 l 1278 403 l 375 403 l 375 204 l 1339 204 l 1339 0 l 111 0 "},"È":{"ha":1408,"x_min":0,"x_max":0,"o":"m 111 1003 l 1339 1003 l 1339 799 l 375 799 l 375 601 l 1278 601 l 1278 403 l 375 403 l 375 204 l 1339 204 l 1339 0 l 111 0 "},"Ē":{"ha":1408,"x_min":0,"x_max":0,"o":"m 111 1003 l 1339 1003 l 1339 799 l 375 799 l 375 601 l 1278 601 l 1278 403 l 375 403 l 375 204 l 1339 204 l 1339 0 l 111 0 "},"Ę":{"ha":1408,"x_min":0,"x_max":0,"o":"m 111 1003 l 1339 1003 l 1339 799 l 375 799 l 375 601 l 1278 601 l 1278 403 l 375 403 l 375 204 l 1339 204 l 1339 0 l 111 0 "},"F":{"ha":1408,"x_min":0,"x_max":0,"o":"m 375 400 l 375 0 l 111 0 l 111 1003 l 1339 1003 l 1339 794 l 375 794 l 375 604 l 1278 604 l 1278 400 "},"G":{"ha":1532,"x_min":0,"x_max":0,"o":"m 1419 119 b 839 -17 1222 18 1047 -17 b 56 507 346 -17 56 176 b 824 1031 56 838 344 1031 b 1421 894 1051 1031 1240 988 l 1421 669 l 1413 668 b 849 822 1238 764 1049 822 b 319 506 503 822 319 704 b 849 192 319 310 499 192 b 1156 238 954 192 1057 208 l 1156 419 l 557 419 l 557 592 l 1419 592 l 1419 119 "},"Ğ":{"ha":1532,"x_min":0,"x_max":0,"o":"m 1419 119 b 839 -17 1222 18 1047 -17 b 56 507 346 -17 56 176 b 824 1031 56 838 344 1031 b 1421 894 1051 1031 1240 988 l 1421 669 l 1413 668 b 849 822 1238 764 1049 822 b 319 506 503 822 319 704 b 849 192 319 310 499 192 b 1156 238 954 192 1057 208 l 1156 419 l 557 419 l 557 592 l 1419 592 l 1419 119 "},"Ĝ":{"ha":1532,"x_min":0,"x_max":0,"o":"m 1419 119 b 839 -17 1222 18 1047 -17 b 56 507 346 -17 56 176 b 824 1031 56 838 344 1031 b 1421 894 1051 1031 1240 988 l 1421 669 l 1413 668 b 849 822 1238 764 1049 822 b 319 506 503 822 319 704 b 849 192 319 310 499 192 b 1156 238 954 192 1057 208 l 1156 419 l 557 419 l 557 592 l 1419 592 l 1419 119 "},"Ģ":{"ha":1532,"x_min":0,"x_max":0,"o":"m 1419 119 b 839 -17 1222 18 1047 -17 b 56 507 346 -17 56 176 b 824 1031 56 838 344 1031 b 1421 894 1051 1031 1240 988 l 1421 669 l 1413 668 b 849 822 1238 764 1049 822 b 319 506 503 822 319 704 b 849 192 319 310 499 192 b 1156 238 954 192 1057 208 l 1156 419 l 557 419 l 557 592 l 1419 592 l 1419 119 "},"Ġ":{"ha":1532,"x_min":0,"x_max":0,"o":"m 1419 119 b 839 -17 1222 18 1047 -17 b 56 507 346 -17 56 176 b 824 1031 56 838 344 1031 b 1421 894 1051 1031 1240 988 l 1421 669 l 1413 668 b 849 822 1238 764 1049 822 b 319 506 503 822 319 704 b 849 192 319 310 499 192 b 1156 238 954 192 1057 208 l 1156 419 l 557 419 l 557 592 l 1419 592 l 1419 119 "},"H":{"ha":1583,"x_min":0,"x_max":0,"o":"m 1208 397 l 375 397 l 375 0 l 111 0 l 111 1003 l 375 1003 l 375 606 l 1208 606 l 1208 1003 l 1472 1003 l 1472 0 l 1208 0 "},"Ĥ":{"ha":1583,"x_min":0,"x_max":0,"o":"m 1208 397 l 375 397 l 375 0 l 111 0 l 111 1003 l 375 1003 l 375 606 l 1208 606 l 1208 1003 l 1472 1003 l 1472 0 l 1208 0 "},"Ħ":{"ha":1583,"x_min":0,"x_max":0,"o":"m 1208 397 l 375 397 l 375 0 l 111 0 l 111 1003 l 375 1003 l 375 606 l 1208 606 l 1208 1003 l 1472 1003 l 1472 0 l 1208 0 "},"I":{"ha":486,"x_min":0,"x_max":0,"o":"m 111 0 l 111 1003 l 375 1003 l 375 0 "},"Į":{"ha":486,"x_min":0,"x_max":0,"o":"m 111 0 l 111 1003 l 375 1003 l 375 0 "},"Í":{"ha":486,"x_min":0,"x_max":0,"o":"m 111 0 l 111 1003 l 375 1003 l 375 0 "},"Ĭ":{"ha":486,"x_min":0,"x_max":0,"o":"m 111 0 l 111 1003 l 375 1003 l 375 0 "},"Î":{"ha":486,"x_min":0,"x_max":0,"o":"m 111 0 l 111 1003 l 375 1003 l 375 0 "},"Ï":{"ha":486,"x_min":0,"x_max":0,"o":"m 111 0 l 111 1003 l 375 1003 l 375 0 "},"İ":{"ha":486,"x_min":0,"x_max":0,"o":"m 111 0 l 111 1003 l 375 1003 l 375 0 "},"Ì":{"ha":486,"x_min":0,"x_max":0,"o":"m 111 0 l 111 1003 l 375 1003 l 375 0 "},"Ī":{"ha":486,"x_min":0,"x_max":0,"o":"m 111 0 l 111 1003 l 375 1003 l 375 0 "},"Ĩ":{"ha":486,"x_min":0,"x_max":0,"o":"m 111 0 l 111 1003 l 375 1003 l 375 0 "},"J":{"ha":981,"x_min":0,"x_max":0,"o":"m 869 518 b 346 -17 869 176 707 -17 b 111 25 228 -17 156 4 l 111 244 l 119 249 b 332 197 192 213 257 197 b 606 497 524 197 606 299 l 606 1003 l 869 1003 l 869 518 "},"Ĵ":{"ha":981,"x_min":0,"x_max":0,"o":"m 869 518 b 346 -17 869 176 707 -17 b 111 25 228 -17 156 4 l 111 244 l 119 249 b 332 197 192 213 257 197 b 606 497 524 197 606 299 l 606 1003 l 869 1003 l 869 518 "},"K":{"ha":1440,"x_min":0,"x_max":0,"o":"m 604 463 l 375 310 l 375 0 l 111 0 l 111 1003 l 375 1003 l 375 578 l 1033 1003 l 1399 1003 l 1403 997 l 808 600 l 1440 6 l 1436 0 l 1090 0 "},"Ķ":{"ha":1440,"x_min":0,"x_max":0,"o":"m 604 463 l 375 310 l 375 0 l 111 0 l 111 1003 l 375 1003 l 375 578 l 1033 1003 l 1399 1003 l 1403 997 l 808 600 l 1440 6 l 1436 0 l 1090 0 "},"L":{"ha":1367,"x_min":0,"x_max":0,"o":"m 125 1003 l 389 1003 l 389 204 l 1297 204 l 1297 0 l 125 0 "},"Ĺ":{"ha":1367,"x_min":0,"x_max":0,"o":"m 125 1003 l 389 1003 l 389 204 l 1297 204 l 1297 0 l 125 0 "},"Ľ":{"ha":1367,"x_min":0,"x_max":0,"o":"m 125 1003 l 389 1003 l 389 204 l 1297 204 l 1297 0 l 125 0 "},"Ļ":{"ha":1367,"x_min":0,"x_max":0,"o":"m 125 1003 l 389 1003 l 389 204 l 1297 204 l 1297 0 l 125 0 "},"Ŀ":{"ha":1367,"x_min":0,"x_max":0,"o":"m 125 1003 l 389 1003 l 389 204 l 1297 204 l 1297 0 l 125 0 "},"Ł":{"ha":1367,"x_min":0,"x_max":0,"o":"m 125 1003 l 389 1003 l 389 204 l 1297 204 l 1297 0 l 125 0 "},"M":{"ha":1786,"x_min":0,"x_max":0,"o":"m 367 651 l 367 0 l 111 0 l 111 1003 l 414 1003 l 893 236 l 1372 1003 l 1675 1003 l 1675 0 l 1419 0 l 1419 651 l 1017 0 l 769 0 "},"N":{"ha":1626,"x_min":0,"x_max":0,"o":"m 375 713 l 375 0 l 111 0 l 111 1003 l 389 1003 l 1251 269 l 1251 1003 l 1515 1003 l 1515 0 l 1210 0 "},"Ń":{"ha":1626,"x_min":0,"x_max":0,"o":"m 375 713 l 375 0 l 111 0 l 111 1003 l 389 1003 l 1251 269 l 1251 1003 l 1515 1003 l 1515 0 l 1210 0 "},"Ň":{"ha":1626,"x_min":0,"x_max":0,"o":"m 375 713 l 375 0 l 111 0 l 111 1003 l 389 1003 l 1251 269 l 1251 1003 l 1515 1003 l 1515 0 l 1210 0 "},"Ņ":{"ha":1626,"x_min":0,"x_max":0,"o":"m 375 713 l 375 0 l 111 0 l 111 1003 l 389 1003 l 1251 269 l 1251 1003 l 1515 1003 l 1515 0 l 1210 0 "},"Ŋ":{"ha":1626,"x_min":0,"x_max":0,"o":"m 375 713 l 375 0 l 111 0 l 111 1003 l 389 1003 l 1251 269 l 1251 1003 l 1515 1003 l 1515 0 l 1210 0 "},"Ñ":{"ha":1626,"x_min":0,"x_max":0,"o":"m 375 713 l 375 0 l 111 0 l 111 1003 l 389 1003 l 1251 269 l 1251 1003 l 1515 1003 l 1515 0 l 1210 0 "},"O":{"ha":1675,"x_min":0,"x_max":0,"o":"m 1619 507 b 838 -17 1619 176 1329 -17 b 56 507 346 -17 56 176 b 838 1031 56 838 346 1031 b 1619 507 1329 1031 1619 838 m 319 507 b 838 192 319 310 503 192 b 1356 507 1172 192 1356 310 b 838 822 1356 704 1172 822 b 319 507 503 822 319 704 "},"Ó":{"ha":1675,"x_min":0,"x_max":0,"o":"m 1619 507 b 838 -17 1619 176 1329 -17 b 56 507 346 -17 56 176 b 838 1031 56 838 346 1031 b 1619 507 1329 1031 1619 838 m 319 507 b 838 192 319 310 503 192 b 1356 507 1172 192 1356 310 b 838 822 1356 704 1172 822 b 319 507 503 822 319 704 "},"Ŏ":{"ha":1675,"x_min":0,"x_max":0,"o":"m 1619 507 b 838 -17 1619 176 1329 -17 b 56 507 346 -17 56 176 b 838 1031 56 838 346 1031 b 1619 507 1329 1031 1619 838 m 319 507 b 838 192 319 310 503 192 b 1356 507 1172 192 1356 310 b 838 822 1356 704 1172 822 b 319 507 503 822 319 704 "},"Ô":{"ha":1675,"x_min":0,"x_max":0,"o":"m 1619 507 b 838 -17 1619 176 1329 -17 b 56 507 346 -17 56 176 b 838 1031 56 838 346 1031 b 1619 507 1329 1031 1619 838 m 319 507 b 838 192 319 310 503 192 b 1356 507 1172 192 1356 310 b 838 822 1356 704 1172 822 b 319 507 503 822 319 704 "},"Ö":{"ha":1675,"x_min":0,"x_max":0,"o":"m 1619 507 b 838 -17 1619 176 1329 -17 b 56 507 346 -17 56 176 b 838 1031 56 838 346 1031 b 1619 507 1329 1031 1619 838 m 319 507 b 838 192 319 310 503 192 b 1356 507 1172 192 1356 310 b 838 822 1356 704 1172 822 b 319 507 503 822 319 704 "},"Ò":{"ha":1675,"x_min":0,"x_max":0,"o":"m 1619 507 b 838 -17 1619 176 1329 -17 b 56 507 346 -17 56 176 b 838 1031 56 838 346 1031 b 1619 507 1329 1031 1619 838 m 319 507 b 838 192 319 310 503 192 b 1356 507 1172 192 1356 310 b 838 822 1356 704 1172 822 b 319 507 503 822 319 704 "},"Ő":{"ha":1675,"x_min":0,"x_max":0,"o":"m 1619 507 b 838 -17 1619 176 1329 -17 b 56 507 346 -17 56 176 b 838 1031 56 838 346 1031 b 1619 507 1329 1031 1619 838 m 319 507 b 838 192 319 310 503 192 b 1356 507 1172 192 1356 310 b 838 822 1356 704 1172 822 b 319 507 503 822 319 704 "},"Ō":{"ha":1675,"x_min":0,"x_max":0,"o":"m 1619 507 b 838 -17 1619 176 1329 -17 b 56 507 346 -17 56 176 b 838 1031 56 838 346 1031 b 1619 507 1329 1031 1619 838 m 319 507 b 838 192 319 310 503 192 b 1356 507 1172 192 1356 310 b 838 822 1356 704 1172 822 b 319 507 503 822 319 704 "},"Ø":{"ha":1675,"x_min":0,"x_max":0,"o":"m 1619 507 b 838 -17 1619 176 1329 -17 b 56 507 346 -17 56 176 b 838 1031 56 838 346 1031 b 1619 507 1329 1031 1619 838 m 319 507 b 838 192 319 310 503 192 b 1356 507 1172 192 1356 310 b 838 822 1356 704 1172 822 b 319 507 503 822 319 704 "},"Õ":{"ha":1675,"x_min":0,"x_max":0,"o":"m 1619 507 b 838 -17 1619 176 1329 -17 b 56 507 346 -17 56 176 b 838 1031 56 838 346 1031 b 1619 507 1329 1031 1619 838 m 319 507 b 838 192 319 310 503 192 b 1356 507 1172 192 1356 310 b 838 822 1356 704 1172 822 b 319 507 503 822 319 704 "},"P":{"ha":1467,"x_min":0,"x_max":0,"o":"m 375 794 l 375 514 l 871 514 b 1143 654 1053 514 1143 543 b 871 794 1143 765 1053 794 m 375 306 l 375 0 l 111 0 l 111 1003 l 878 1003 b 1411 654 1224 1003 1411 879 b 885 306 1411 429 1226 306 "},"Q":{"ha":1676,"x_min":0,"x_max":0,"o":"m 1299 -97 l 1175 21 b 838 -17 1076 -4 964 -17 b 56 507 346 -17 56 176 b 838 1031 56 838 346 1031 b 1619 507 1329 1031 1619 838 b 1404 115 1619 338 1543 206 l 1621 -92 l 1615 -97 m 838 192 b 986 200 892 192 942 194 l 774 404 l 779 410 l 1096 410 l 1231 281 b 1356 507 1313 335 1356 411 b 838 822 1356 704 1172 822 b 319 507 503 822 319 704 b 838 192 319 310 503 192 "},"R":{"ha":1494,"x_min":0,"x_max":0,"o":"m 375 794 l 375 535 l 876 535 b 1143 664 1053 535 1143 563 b 876 794 1143 767 1053 794 m 778 326 l 375 326 l 375 0 l 111 0 l 111 1003 l 883 1003 b 1407 664 1219 1003 1407 883 b 1076 342 1407 490 1290 379 l 1439 6 l 1435 0 l 1114 0 "},"Ŕ":{"ha":1494,"x_min":0,"x_max":0,"o":"m 375 794 l 375 535 l 876 535 b 1143 664 1053 535 1143 563 b 876 794 1143 767 1053 794 m 778 326 l 375 326 l 375 0 l 111 0 l 111 1003 l 883 1003 b 1407 664 1219 1003 1407 883 b 1076 342 1407 490 1290 379 l 1439 6 l 1435 0 l 1114 0 "},"Ř":{"ha":1494,"x_min":0,"x_max":0,"o":"m 375 794 l 375 535 l 876 535 b 1143 664 1053 535 1143 563 b 876 794 1143 767 1053 794 m 778 326 l 375 326 l 375 0 l 111 0 l 111 1003 l 883 1003 b 1407 664 1219 1003 1407 883 b 1076 342 1407 490 1290 379 l 1439 6 l 1435 0 l 1114 0 "},"Ŗ":{"ha":1494,"x_min":0,"x_max":0,"o":"m 375 794 l 375 535 l 876 535 b 1143 664 1053 535 1143 563 b 876 794 1143 767 1053 794 m 778 326 l 375 326 l 375 0 l 111 0 l 111 1003 l 883 1003 b 1407 664 1219 1003 1407 883 b 1076 342 1407 490 1290 379 l 1439 6 l 1435 0 l 1114 0 "},"S":{"ha":1504,"x_min":0,"x_max":0,"o":"m 76 718 b 736 1032 76 924 303 1032 b 1335 951 953 1032 1151 1006 l 1335 740 l 1326 738 b 742 824 1135 794 939 824 b 340 726 460 824 340 789 b 1435 314 340 525 1435 782 b 736 -17 1435 85 1231 -17 b 82 68 483 -17 253 14 l 82 290 l 90 294 b 751 192 278 224 476 192 b 1171 307 1046 192 1171 239 b 76 718 1171 508 76 243 "},"Ś":{"ha":1504,"x_min":0,"x_max":0,"o":"m 76 718 b 736 1032 76 924 303 1032 b 1335 951 953 1032 1151 1006 l 1335 740 l 1326 738 b 742 824 1135 794 939 824 b 340 726 460 824 340 789 b 1435 314 340 525 1435 782 b 736 -17 1435 85 1231 -17 b 82 68 483 -17 253 14 l 82 290 l 90 294 b 751 192 278 224 476 192 b 1171 307 1046 192 1171 239 b 76 718 1171 508 76 243 "},"Š":{"ha":1504,"x_min":0,"x_max":0,"o":"m 76 718 b 736 1032 76 924 303 1032 b 1335 951 953 1032 1151 1006 l 1335 740 l 1326 738 b 742 824 1135 794 939 824 b 340 726 460 824 340 789 b 1435 314 340 525 1435 782 b 736 -17 1435 85 1231 -17 b 82 68 483 -17 253 14 l 82 290 l 90 294 b 751 192 278 224 476 192 b 1171 307 1046 192 1171 239 b 76 718 1171 508 76 243 "},"Ŝ":{"ha":1504,"x_min":0,"x_max":0,"o":"m 76 718 b 736 1032 76 924 303 1032 b 1335 951 953 1032 1151 1006 l 1335 740 l 1326 738 b 742 824 1135 794 939 824 b 340 726 460 824 340 789 b 1435 314 340 525 1435 782 b 736 -17 1435 85 1231 -17 b 82 68 483 -17 253 14 l 82 290 l 90 294 b 751 192 278 224 476 192 b 1171 307 1046 192 1171 239 b 76 718 1171 508 76 243 "},"Ş":{"ha":1504,"x_min":0,"x_max":0,"o":"m 76 718 b 736 1032 76 924 303 1032 b 1335 951 953 1032 1151 1006 l 1335 740 l 1326 738 b 742 824 1135 794 939 824 b 340 726 460 824 340 789 b 1435 314 340 525 1435 782 b 736 -17 1435 85 1231 -17 b 82 68 483 -17 253 14 l 82 290 l 90 294 b 751 192 278 224 476 192 b 1171 307 1046 192 1171 239 b 76 718 1171 508 76 243 "},"Ș":{"ha":1504,"x_min":0,"x_max":0,"o":"m 76 718 b 736 1032 76 924 303 1032 b 1335 951 953 1032 1151 1006 l 1335 740 l 1326 738 b 742 824 1135 794 939 824 b 340 726 460 824 340 789 b 1435 314 340 525 1435 782 b 736 -17 1435 85 1231 -17 b 82 68 483 -17 253 14 l 82 290 l 90 294 b 751 192 278 224 476 192 b 1171 307 1046 192 1171 239 b 76 718 1171 508 76 243 "},"T":{"ha":1499,"x_min":0,"x_max":0,"o":"m 881 799 l 881 0 l 617 0 l 617 799 l 28 799 l 28 1003 l 1471 1003 l 1471 799 "},"Ŧ":{"ha":1499,"x_min":0,"x_max":0,"o":"m 881 799 l 881 0 l 617 0 l 617 799 l 28 799 l 28 1003 l 1471 1003 l 1471 799 "},"Ť":{"ha":1499,"x_min":0,"x_max":0,"o":"m 881 799 l 881 0 l 617 0 l 617 799 l 28 799 l 28 1003 l 1471 1003 l 1471 799 "},"Ţ":{"ha":1499,"x_min":0,"x_max":0,"o":"m 881 799 l 881 0 l 617 0 l 617 799 l 28 799 l 28 1003 l 1471 1003 l 1471 799 "},"Ț":{"ha":1499,"x_min":0,"x_max":0,"o":"m 881 799 l 881 0 l 617 0 l 617 799 l 28 799 l 28 1003 l 1471 1003 l 1471 799 "},"U":{"ha":1469,"x_min":0,"x_max":0,"o":"m 1358 543 b 735 -17 1358 154 1138 -17 b 111 543 332 -17 111 154 l 111 1003 l 375 1003 l 375 524 b 735 192 375 303 494 192 b 1094 524 975 192 1094 303 l 1094 1003 l 1358 1003 l 1358 543 "},"Ú":{"ha":1469,"x_min":0,"x_max":0,"o":"m 1358 543 b 735 -17 1358 154 1138 -17 b 111 543 332 -17 111 154 l 111 1003 l 375 1003 l 375 524 b 735 192 375 303 494 192 b 1094 524 975 192 1094 303 l 1094 1003 l 1358 1003 l 1358 543 "},"Û":{"ha":1469,"x_min":0,"x_max":0,"o":"m 1358 543 b 735 -17 1358 154 1138 -17 b 111 543 332 -17 111 154 l 111 1003 l 375 1003 l 375 524 b 735 192 375 303 494 192 b 1094 524 975 192 1094 303 l 1094 1003 l 1358 1003 l 1358 543 "},"Ü":{"ha":1469,"x_min":0,"x_max":0,"o":"m 1358 543 b 735 -17 1358 154 1138 -17 b 111 543 332 -17 111 154 l 111 1003 l 375 1003 l 375 524 b 735 192 375 303 494 192 b 1094 524 975 192 1094 303 l 1094 1003 l 1358 1003 l 1358 543 "},"Ù":{"ha":1469,"x_min":0,"x_max":0,"o":"m 1358 543 b 735 -17 1358 154 1138 -17 b 111 543 332 -17 111 154 l 111 1003 l 375 1003 l 375 524 b 735 192 375 303 494 192 b 1094 524 975 192 1094 303 l 1094 1003 l 1358 1003 l 1358 543 "},"Ű":{"ha":1469,"x_min":0,"x_max":0,"o":"m 1358 543 b 735 -17 1358 154 1138 -17 b 111 543 332 -17 111 154 l 111 1003 l 375 1003 l 375 524 b 735 192 375 303 494 192 b 1094 524 975 192 1094 303 l 1094 1003 l 1358 1003 l 1358 543 "},"Ũ":{"ha":1469,"x_min":0,"x_max":0,"o":"m 1358 543 b 735 -17 1358 154 1138 -17 b 111 543 332 -17 111 154 l 111 1003 l 375 1003 l 375 524 b 735 192 375 303 494 192 b 1094 524 975 192 1094 303 l 1094 1003 l 1358 1003 l 1358 543 "},"Ū":{"ha":1469,"x_min":0,"x_max":0,"o":"m 1358 543 b 735 -17 1358 154 1138 -17 b 111 543 332 -17 111 154 l 111 1003 l 375 1003 l 375 524 b 735 192 375 303 494 192 b 1094 524 975 192 1094 303 l 1094 1003 l 1358 1003 l 1358 543 "},"Ų":{"ha":1469,"x_min":0,"x_max":0,"o":"m 1358 543 b 735 -17 1358 154 1138 -17 b 111 543 332 -17 111 154 l 111 1003 l 375 1003 l 375 524 b 735 192 375 303 494 192 b 1094 524 975 192 1094 303 l 1094 1003 l 1358 1003 l 1358 543 "},"Ů":{"ha":1469,"x_min":0,"x_max":0,"o":"m 1358 543 b 735 -17 1358 154 1138 -17 b 111 543 332 -17 111 154 l 111 1003 l 375 1003 l 375 524 b 735 192 375 303 494 192 b 1094 524 975 192 1094 303 l 1094 1003 l 1358 1003 l 1358 543 "},"V":{"ha":1511,"x_min":0,"x_max":0,"o":"m 635 0 l 0 997 l 4 1003 l 282 1003 l 768 224 l 1231 1003 l 1507 1003 l 1511 997 l 907 0 "},"W":{"ha":1903,"x_min":0,"x_max":0,"o":"m 0 997 l 4 1003 l 276 1003 l 551 299 l 826 1003 l 1078 1003 l 1353 300 l 1629 1003 l 1899 1003 l 1903 997 l 1486 0 l 1229 0 l 951 708 l 674 0 l 417 0 "},"Ẃ":{"ha":1903,"x_min":0,"x_max":0,"o":"m 0 997 l 4 1003 l 276 1003 l 551 299 l 826 1003 l 1078 1003 l 1353 300 l 1629 1003 l 1899 1003 l 1903 997 l 1486 0 l 1229 0 l 951 708 l 674 0 l 417 0 "},"Ŵ":{"ha":1903,"x_min":0,"x_max":0,"o":"m 0 997 l 4 1003 l 276 1003 l 551 299 l 826 1003 l 1078 1003 l 1353 300 l 1629 1003 l 1899 1003 l 1903 997 l 1486 0 l 1229 0 l 951 708 l 674 0 l 417 0 "},"Ẅ":{"ha":1903,"x_min":0,"x_max":0,"o":"m 0 997 l 4 1003 l 276 1003 l 551 299 l 826 1003 l 1078 1003 l 1353 300 l 1629 1003 l 1899 1003 l 1903 997 l 1486 0 l 1229 0 l 951 708 l 674 0 l 417 0 "},"Ẁ":{"ha":1903,"x_min":0,"x_max":0,"o":"m 0 997 l 4 1003 l 276 1003 l 551 299 l 826 1003 l 1078 1003 l 1353 300 l 1629 1003 l 1899 1003 l 1903 997 l 1486 0 l 1229 0 l 951 708 l 674 0 l 417 0 "},"X":{"ha":1403,"x_min":0,"x_max":0,"o":"m 700 357 l 318 0 l 4 0 l 0 6 l 538 508 l 14 997 l 18 1003 l 335 1003 l 701 661 l 1068 1003 l 1382 1003 l 1386 997 l 864 510 l 1403 6 l 1399 0 l 1082 0 "},"Y":{"ha":1442,"x_min":0,"x_max":0,"o":"m 0 997 l 4 1003 l 306 1003 l 721 532 l 1138 1003 l 1438 1003 l 1442 997 l 853 344 l 853 0 l 589 0 l 589 344 "},"Ý":{"ha":1442,"x_min":0,"x_max":0,"o":"m 0 997 l 4 1003 l 306 1003 l 721 532 l 1138 1003 l 1438 1003 l 1442 997 l 853 344 l 853 0 l 589 0 l 589 344 "},"Ÿ":{"ha":1442,"x_min":0,"x_max":0,"o":"m 0 997 l 4 1003 l 306 1003 l 721 532 l 1138 1003 l 1438 1003 l 1442 997 l 853 344 l 853 0 l 589 0 l 589 344 "},"Ỳ":{"ha":1442,"x_min":0,"x_max":0,"o":"m 0 997 l 4 1003 l 306 1003 l 721 532 l 1138 1003 l 1438 1003 l 1442 997 l 853 344 l 853 0 l 589 0 l 589 344 "},"Ŷ":{"ha":1442,"x_min":0,"x_max":0,"o":"m 0 997 l 4 1003 l 306 1003 l 721 532 l 1138 1003 l 1438 1003 l 1442 997 l 853 344 l 853 0 l 589 0 l 589 344 "},"Z":{"ha":1499,"x_min":0,"x_max":0,"o":"m 111 158 l 956 794 l 140 794 l 140 1003 l 1372 1003 l 1372 844 l 556 208 l 1388 208 l 1388 0 l 111 0 "},"Ź":{"ha":1499,"x_min":0,"x_max":0,"o":"m 111 158 l 956 794 l 140 794 l 140 1003 l 1372 1003 l 1372 844 l 556 208 l 1388 208 l 1388 0 l 111 0 "},"Ž":{"ha":1499,"x_min":0,"x_max":0,"o":"m 111 158 l 956 794 l 140 794 l 140 1003 l 1372 1003 l 1372 844 l 556 208 l 1388 208 l 1388 0 l 111 0 "},"Ż":{"ha":1499,"x_min":0,"x_max":0,"o":"m 111 158 l 956 794 l 140 794 l 140 1003 l 1372 1003 l 1372 844 l 556 208 l 1388 208 l 1388 0 l 111 0 "},"a":{"ha":1263,"x_min":0,"x_max":0,"o":"m 519 171 b 936 349 776 171 936 240 l 936 361 l 499 338 b 307 250 369 331 307 303 b 519 171 307 196 367 171 m 936 128 b 490 -17 836 29 700 -17 b 49 239 199 -17 49 71 b 532 496 49 401 193 478 l 936 517 b 640 625 929 589 831 625 b 131 489 439 625 282 583 l 126 492 l 126 707 b 657 813 282 781 460 813 b 1172 507 1003 813 1172 713 l 1172 0 l 936 0 "},"á":{"ha":1263,"x_min":0,"x_max":0,"o":"m 519 171 b 936 349 776 171 936 240 l 936 361 l 499 338 b 307 250 369 331 307 303 b 519 171 307 196 367 171 m 936 128 b 490 -17 836 29 700 -17 b 49 239 199 -17 49 71 b 532 496 49 401 193 478 l 936 517 b 640 625 929 589 831 625 b 131 489 439 625 282 583 l 126 492 l 126 707 b 657 813 282 781 460 813 b 1172 507 1003 813 1172 713 l 1172 0 l 936 0 "},"ă":{"ha":1263,"x_min":0,"x_max":0,"o":"m 519 171 b 936 349 776 171 936 240 l 936 361 l 499 338 b 307 250 369 331 307 303 b 519 171 307 196 367 171 m 936 128 b 490 -17 836 29 700 -17 b 49 239 199 -17 49 71 b 532 496 49 401 193 478 l 936 517 b 640 625 929 589 831 625 b 131 489 439 625 282 583 l 126 492 l 126 707 b 657 813 282 781 460 813 b 1172 507 1003 813 1172 713 l 1172 0 l 936 0 "},"â":{"ha":1263,"x_min":0,"x_max":0,"o":"m 519 171 b 936 349 776 171 936 240 l 936 361 l 499 338 b 307 250 369 331 307 303 b 519 171 307 196 367 171 m 936 128 b 490 -17 836 29 700 -17 b 49 239 199 -17 49 71 b 532 496 49 401 193 478 l 936 517 b 640 625 929 589 831 625 b 131 489 439 625 282 583 l 126 492 l 126 707 b 657 813 282 781 460 813 b 1172 507 1003 813 1172 713 l 1172 0 l 936 0 "},"ä":{"ha":1263,"x_min":0,"x_max":0,"o":"m 519 171 b 936 349 776 171 936 240 l 936 361 l 499 338 b 307 250 369 331 307 303 b 519 171 307 196 367 171 m 936 128 b 490 -17 836 29 700 -17 b 49 239 199 -17 49 71 b 532 496 49 401 193 478 l 936 517 b 640 625 929 589 831 625 b 131 489 439 625 282 583 l 126 492 l 126 707 b 657 813 282 781 460 813 b 1172 507 1003 813 1172 713 l 1172 0 l 936 0 "},"à":{"ha":1263,"x_min":0,"x_max":0,"o":"m 519 171 b 936 349 776 171 936 240 l 936 361 l 499 338 b 307 250 369 331 307 303 b 519 171 307 196 367 171 m 936 128 b 490 -17 836 29 700 -17 b 49 239 199 -17 49 71 b 532 496 49 401 193 478 l 936 517 b 640 625 929 589 831 625 b 131 489 439 625 282 583 l 126 492 l 126 707 b 657 813 282 781 460 813 b 1172 507 1003 813 1172 713 l 1172 0 l 936 0 "},"ā":{"ha":1263,"x_min":0,"x_max":0,"o":"m 519 171 b 936 349 776 171 936 240 l 936 361 l 499 338 b 307 250 369 331 307 303 b 519 171 307 196 367 171 m 936 128 b 490 -17 836 29 700 -17 b 49 239 199 -17 49 71 b 532 496 49 401 193 478 l 936 517 b 640 625 929 589 831 625 b 131 489 439 625 282 583 l 126 492 l 126 707 b 657 813 282 781 460 813 b 1172 507 1003 813 1172 713 l 1172 0 l 936 0 "},"å":{"ha":1263,"x_min":0,"x_max":0,"o":"m 519 171 b 936 349 776 171 936 240 l 936 361 l 499 338 b 307 250 369 331 307 303 b 519 171 307 196 367 171 m 936 128 b 490 -17 836 29 700 -17 b 49 239 199 -17 49 71 b 532 496 49 401 193 478 l 936 517 b 640 625 929 589 831 625 b 131 489 439 625 282 583 l 126 492 l 126 707 b 657 813 282 781 460 813 b 1172 507 1003 813 1172 713 l 1172 0 l 936 0 "},"ã":{"ha":1263,"x_min":0,"x_max":0,"o":"m 519 171 b 936 349 776 171 936 240 l 936 361 l 499 338 b 307 250 369 331 307 303 b 519 171 307 196 367 171 m 936 128 b 490 -17 836 29 700 -17 b 49 239 199 -17 49 71 b 532 496 49 401 193 478 l 936 517 b 640 625 929 589 831 625 b 131 489 439 625 282 583 l 126 492 l 126 707 b 657 813 282 781 460 813 b 1172 507 1003 813 1172 713 l 1172 0 l 936 0 "},"ą":{"ha":1263,"x_min":0,"x_max":0,"o":"m 519 171 b 936 349 776 171 936 240 l 936 361 l 499 338 b 307 250 369 331 307 303 b 519 171 307 196 367 171 m 936 128 b 490 -17 836 29 700 -17 b 49 239 199 -17 49 71 b 532 496 49 401 193 478 l 936 517 b 640 625 929 589 831 625 b 131 489 439 625 282 583 l 126 492 l 126 707 b 657 813 282 781 460 813 b 1172 507 1003 813 1172 713 l 1172 0 l 936 0 "},"b":{"ha":1357,"x_min":0,"x_max":0,"o":"m 756 -17 b 354 101 578 -17 443 25 l 354 0 l 97 0 l 97 1003 l 354 1003 l 354 676 b 765 813 447 764 589 813 b 1308 389 1092 813 1308 647 b 756 -17 1308 133 1094 -17 m 354 399 b 703 171 354 253 479 171 b 1051 399 928 171 1051 253 b 703 625 1051 544 928 625 b 354 399 478 625 354 544 "},"c":{"ha":1224,"x_min":0,"x_max":0,"o":"m 1126 92 b 656 -17 983 18 831 -17 b 49 397 275 -17 49 146 b 656 813 49 650 275 813 b 1126 704 831 813 983 778 l 1126 471 l 1121 469 b 656 614 989 561 846 614 b 306 397 428 614 306 539 b 656 182 306 256 428 182 b 1121 325 846 182 990 233 l 1126 324 l 1126 92 "},"ć":{"ha":1224,"x_min":0,"x_max":0,"o":"m 1126 92 b 656 -17 983 18 831 -17 b 49 397 275 -17 49 146 b 656 813 49 650 275 813 b 1126 704 831 813 983 778 l 1126 471 l 1121 469 b 656 614 989 561 846 614 b 306 397 428 614 306 539 b 656 182 306 256 428 182 b 1121 325 846 182 990 233 l 1126 324 l 1126 92 "},"č":{"ha":1224,"x_min":0,"x_max":0,"o":"m 1126 92 b 656 -17 983 18 831 -17 b 49 397 275 -17 49 146 b 656 813 49 650 275 813 b 1126 704 831 813 983 778 l 1126 471 l 1121 469 b 656 614 989 561 846 614 b 306 397 428 614 306 539 b 656 182 306 256 428 182 b 1121 325 846 182 990 233 l 1126 324 l 1126 92 "},"ĉ":{"ha":1224,"x_min":0,"x_max":0,"o":"m 1126 92 b 656 -17 983 18 831 -17 b 49 397 275 -17 49 146 b 656 813 49 650 275 813 b 1126 704 831 813 983 778 l 1126 471 l 1121 469 b 656 614 989 561 846 614 b 306 397 428 614 306 539 b 656 182 306 256 428 182 b 1121 325 846 182 990 233 l 1126 324 l 1126 92 "},"ċ":{"ha":1224,"x_min":0,"x_max":0,"o":"m 1126 92 b 656 -17 983 18 831 -17 b 49 397 275 -17 49 146 b 656 813 49 650 275 813 b 1126 704 831 813 983 778 l 1126 471 l 1121 469 b 656 614 989 561 846 614 b 306 397 428 614 306 539 b 656 182 306 256 428 182 b 1121 325 846 182 990 233 l 1126 324 l 1126 92 "},"ç":{"ha":1224,"x_min":0,"x_max":0,"o":"m 1126 92 b 656 -17 983 18 831 -17 b 49 397 275 -17 49 146 b 656 813 49 650 275 813 b 1126 704 831 813 983 778 l 1126 471 l 1121 469 b 656 614 989 561 846 614 b 306 397 428 614 306 539 b 656 182 306 256 428 182 b 1121 325 846 182 990 233 l 1126 324 l 1126 92 "},"d":{"ha":1357,"x_min":0,"x_max":0,"o":"m 654 171 b 1003 399 878 171 1003 253 b 654 625 1003 544 879 625 b 306 399 429 625 306 544 b 654 171 306 253 429 171 m 1003 101 b 601 -17 914 25 779 -17 b 49 389 263 -17 49 133 b 592 813 49 647 265 813 b 1003 676 768 813 910 764 l 1003 1003 l 1260 1003 l 1260 0 l 1003 0 "},"ď":{"ha":1538,"x_min":0,"x_max":0,"o":"m 654 171 b 1003 399 878 171 1003 253 b 654 625 1003 544 879 625 b 306 399 429 625 306 544 b 654 171 306 253 429 171 m 1003 101 b 601 -17 914 25 779 -17 b 49 389 263 -17 49 133 b 592 813 49 647 265 813 b 1003 676 768 813 910 764 l 1003 1003 l 1260 1003 l 1260 0 l 1003 0 "},"đ":{"ha":1357,"x_min":0,"x_max":0,"o":"m 654 171 b 1003 399 878 171 1003 253 b 654 625 1003 544 879 625 b 306 399 429 625 306 544 b 654 171 306 253 429 171 m 1003 101 b 601 -17 914 25 779 -17 b 49 389 263 -17 49 133 b 592 813 49 647 265 813 b 1003 676 768 813 910 764 l 1003 1003 l 1260 1003 l 1260 0 l 1003 0 "},"e":{"ha":1265,"x_min":0,"x_max":0,"o":"m 643 625 b 335 504 492 625 383 583 l 947 504 b 643 625 904 582 796 625 m 1153 92 b 675 -17 1010 18 860 -17 b 49 400 271 -17 49 149 b 640 813 49 653 276 813 b 1217 397 997 813 1217 658 l 1217 396 l 1217 346 l 311 346 b 679 182 339 232 469 182 b 1147 318 888 182 1014 228 l 1153 314 l 1153 92 "},"é":{"ha":1265,"x_min":0,"x_max":0,"o":"m 643 625 b 335 504 492 625 383 583 l 947 504 b 643 625 904 582 796 625 m 1153 92 b 675 -17 1010 18 860 -17 b 49 400 271 -17 49 149 b 640 813 49 653 276 813 b 1217 397 997 813 1217 658 l 1217 396 l 1217 346 l 311 346 b 679 182 339 232 469 182 b 1147 318 888 182 1014 228 l 1153 314 l 1153 92 "},"ĕ":{"ha":1265,"x_min":0,"x_max":0,"o":"m 643 625 b 335 504 492 625 383 583 l 947 504 b 643 625 904 582 796 625 m 1153 92 b 675 -17 1010 18 860 -17 b 49 400 271 -17 49 149 b 640 813 49 653 276 813 b 1217 397 997 813 1217 658 l 1217 396 l 1217 346 l 311 346 b 679 182 339 232 469 182 b 1147 318 888 182 1014 228 l 1153 314 l 1153 92 "},"ě":{"ha":1265,"x_min":0,"x_max":0,"o":"m 643 625 b 335 504 492 625 383 583 l 947 504 b 643 625 904 582 796 625 m 1153 92 b 675 -17 1010 18 860 -17 b 49 400 271 -17 49 149 b 640 813 49 653 276 813 b 1217 397 997 813 1217 658 l 1217 396 l 1217 346 l 311 346 b 679 182 339 232 469 182 b 1147 318 888 182 1014 228 l 1153 314 l 1153 92 "},"ê":{"ha":1265,"x_min":0,"x_max":0,"o":"m 643 625 b 335 504 492 625 383 583 l 947 504 b 643 625 904 582 796 625 m 1153 92 b 675 -17 1010 18 860 -17 b 49 400 271 -17 49 149 b 640 813 49 653 276 813 b 1217 397 997 813 1217 658 l 1217 396 l 1217 346 l 311 346 b 679 182 339 232 469 182 b 1147 318 888 182 1014 228 l 1153 314 l 1153 92 "},"ë":{"ha":1265,"x_min":0,"x_max":0,"o":"m 643 625 b 335 504 492 625 383 583 l 947 504 b 643 625 904 582 796 625 m 1153 92 b 675 -17 1010 18 860 -17 b 49 400 271 -17 49 149 b 640 813 49 653 276 813 b 1217 397 997 813 1217 658 l 1217 396 l 1217 346 l 311 346 b 679 182 339 232 469 182 b 1147 318 888 182 1014 228 l 1153 314 l 1153 92 "},"ė":{"ha":1265,"x_min":0,"x_max":0,"o":"m 643 625 b 335 504 492 625 383 583 l 947 504 b 643 625 904 582 796 625 m 1153 92 b 675 -17 1010 18 860 -17 b 49 400 271 -17 49 149 b 640 813 49 653 276 813 b 1217 397 997 813 1217 658 l 1217 396 l 1217 346 l 311 346 b 679 182 339 232 469 182 b 1147 318 888 182 1014 228 l 1153 314 l 1153 92 "},"è":{"ha":1265,"x_min":0,"x_max":0,"o":"m 643 625 b 335 504 492 625 383 583 l 947 504 b 643 625 904 582 796 625 m 1153 92 b 675 -17 1010 18 860 -17 b 49 400 271 -17 49 149 b 640 813 49 653 276 813 b 1217 397 997 813 1217 658 l 1217 396 l 1217 346 l 311 346 b 679 182 339 232 469 182 b 1147 318 888 182 1014 228 l 1153 314 l 1153 92 "},"ē":{"ha":1265,"x_min":0,"x_max":0,"o":"m 643 625 b 335 504 492 625 383 583 l 947 504 b 643 625 904 582 796 625 m 1153 92 b 675 -17 1010 18 860 -17 b 49 400 271 -17 49 149 b 640 813 49 653 276 813 b 1217 397 997 813 1217 658 l 1217 396 l 1217 346 l 311 346 b 679 182 339 232 469 182 b 1147 318 888 182 1014 228 l 1153 314 l 1153 92 "},"ę":{"ha":1265,"x_min":0,"x_max":0,"o":"m 643 625 b 335 504 492 625 383 583 l 947 504 b 643 625 904 582 796 625 m 1153 92 b 675 -17 1010 18 860 -17 b 49 400 271 -17 49 149 b 640 813 49 653 276 813 b 1217 397 997 813 1217 658 l 1217 396 l 1217 346 l 311 346 b 679 182 339 232 469 182 b 1147 318 888 182 1014 228 l 1153 314 l 1153 92 "},"f":{"ha":861,"x_min":0,"x_max":0,"o":"m 219 724 b 635 1031 233 933 367 1031 b 792 1017 706 1031 751 1024 l 792 846 l 782 843 b 679 854 764 849 729 854 b 476 724 540 854 476 818 l 792 724 l 792 563 l 476 563 l 476 0 l 219 0 l 219 563 l 35 563 l 35 724 l 219 724 "},"g":{"ha":1357,"x_min":0,"x_max":0,"o":"m 306 399 b 654 171 306 253 429 171 b 1003 399 878 171 1003 253 b 654 625 1003 544 879 625 b 306 399 429 625 306 544 m 618 -350 b 125 -242 435 -350 263 -315 l 125 -11 l 132 -8 b 626 -161 276 -108 453 -161 b 1003 75 867 -161 1000 -78 l 1003 101 b 601 -17 914 25 779 -17 b 49 389 263 -17 49 133 b 592 813 49 647 265 813 b 1003 676 768 813 910 764 l 1003 796 l 1260 796 l 1260 107 b 618 -350 1254 -217 1028 -350 "},"ğ":{"ha":1357,"x_min":0,"x_max":0,"o":"m 306 399 b 654 171 306 253 429 171 b 1003 399 878 171 1003 253 b 654 625 1003 544 879 625 b 306 399 429 625 306 544 m 618 -350 b 125 -242 435 -350 263 -315 l 125 -11 l 132 -8 b 626 -161 276 -108 453 -161 b 1003 75 867 -161 1000 -78 l 1003 101 b 601 -17 914 25 779 -17 b 49 389 263 -17 49 133 b 592 813 49 647 265 813 b 1003 676 768 813 910 764 l 1003 796 l 1260 796 l 1260 107 b 618 -350 1254 -217 1028 -350 "},"ĝ":{"ha":1357,"x_min":0,"x_max":0,"o":"m 306 399 b 654 171 306 253 429 171 b 1003 399 878 171 1003 253 b 654 625 1003 544 879 625 b 306 399 429 625 306 544 m 618 -350 b 125 -242 435 -350 263 -315 l 125 -11 l 132 -8 b 626 -161 276 -108 453 -161 b 1003 75 867 -161 1000 -78 l 1003 101 b 601 -17 914 25 779 -17 b 49 389 263 -17 49 133 b 592 813 49 647 265 813 b 1003 676 768 813 910 764 l 1003 796 l 1260 796 l 1260 107 b 618 -350 1254 -217 1028 -350 "},"ġ":{"ha":1357,"x_min":0,"x_max":0,"o":"m 306 399 b 654 171 306 253 429 171 b 1003 399 878 171 1003 253 b 654 625 1003 544 879 625 b 306 399 429 625 306 544 m 618 -350 b 125 -242 435 -350 263 -315 l 125 -11 l 132 -8 b 626 -161 276 -108 453 -161 b 1003 75 867 -161 1000 -78 l 1003 101 b 601 -17 914 25 779 -17 b 49 389 263 -17 49 133 b 592 813 49 647 265 813 b 1003 676 768 813 910 764 l 1003 796 l 1260 796 l 1260 107 b 618 -350 1254 -217 1028 -350 "},"ģ":{"ha":1357,"x_min":0,"x_max":0,"o":"m 306 399 b 654 171 306 253 429 171 b 1003 399 878 171 1003 253 b 654 625 1003 544 879 625 b 306 399 429 625 306 544 m 618 -350 b 125 -242 435 -350 263 -315 l 125 -11 l 132 -8 b 626 -161 276 -108 453 -161 b 1003 75 867 -161 1000 -78 l 1003 101 b 601 -17 914 25 779 -17 b 49 389 263 -17 49 133 b 592 813 49 647 265 813 b 1003 676 768 813 910 764 l 1003 796 l 1260 796 l 1260 107 b 618 -350 1254 -217 1028 -350 "},"h":{"ha":1329,"x_min":0,"x_max":0,"o":"m 354 0 l 97 0 l 97 1003 l 354 1003 l 354 674 b 756 813 449 764 590 813 b 1239 400 1057 813 1239 658 l 1239 0 l 982 0 l 982 364 b 689 628 982 553 871 628 b 354 313 479 628 354 522 "},"ĥ":{"ha":1329,"x_min":0,"x_max":0,"o":"m 354 0 l 97 0 l 97 1003 l 354 1003 l 354 674 b 756 813 449 764 590 813 b 1239 400 1057 813 1239 658 l 1239 0 l 982 0 l 982 364 b 689 628 982 553 871 628 b 354 313 479 628 354 522 "},"ħ":{"ha":1329,"x_min":0,"x_max":0,"o":"m 354 0 l 97 0 l 97 1003 l 354 1003 l 354 674 b 756 813 449 764 590 813 b 1239 400 1057 813 1239 658 l 1239 0 l 982 0 l 982 364 b 689 628 982 553 871 628 b 354 313 479 628 354 522 "},"i":{"ha":451,"x_min":0,"x_max":0,"o":"m 79 935 l 79 1151 l 375 1151 l 375 935 m 97 0 l 97 796 l 354 796 l 354 0 "},"ı":{"ha":451,"x_min":0,"x_max":0,"o":"m 79 935 l 79 1151 l 375 1151 l 375 935 m 97 0 l 97 796 l 354 796 l 354 0 "},"í":{"ha":451,"x_min":0,"x_max":0,"o":"m 79 935 l 79 1151 l 375 1151 l 375 935 m 97 0 l 97 796 l 354 796 l 354 0 "},"ĭ":{"ha":451,"x_min":0,"x_max":0,"o":"m 79 935 l 79 1151 l 375 1151 l 375 935 m 97 0 l 97 796 l 354 796 l 354 0 "},"î":{"ha":451,"x_min":0,"x_max":0,"o":"m 79 935 l 79 1151 l 375 1151 l 375 935 m 97 0 l 97 796 l 354 796 l 354 0 "},"ï":{"ha":451,"x_min":0,"x_max":0,"o":"m 79 935 l 79 1151 l 375 1151 l 375 935 m 97 0 l 97 796 l 354 796 l 354 0 "},"ì":{"ha":451,"x_min":0,"x_max":0,"o":"m 79 935 l 79 1151 l 375 1151 l 375 935 m 97 0 l 97 796 l 354 796 l 354 0 "},"ī":{"ha":451,"x_min":0,"x_max":0,"o":"m 79 935 l 79 1151 l 375 1151 l 375 935 m 97 0 l 97 796 l 354 796 l 354 0 "},"ĩ":{"ha":451,"x_min":0,"x_max":0,"o":"m 79 935 l 79 1151 l 375 1151 l 375 935 m 97 0 l 97 796 l 354 796 l 354 0 "},"į":{"ha":451,"x_min":0,"x_max":0,"o":"m 79 935 l 79 1151 l 375 1151 l 375 935 m 97 0 l 97 796 l 354 796 l 354 0 "},"j":{"ha":521,"x_min":0,"x_max":0,"o":"m 154 935 l 154 1151 l 450 1151 l 450 935 m 431 47 b 33 -350 431 -210 278 -350 b -28 -344 3 -350 -15 -347 l -28 -154 l -19 -149 b 175 53 129 -161 175 -122 l 175 796 l 431 796 l 431 47 "},"ȷ":{"ha":521,"x_min":0,"x_max":0,"o":"m 154 935 l 154 1151 l 450 1151 l 450 935 m 431 47 b 33 -350 431 -210 278 -350 b -28 -344 3 -350 -15 -347 l -28 -154 l -19 -149 b 175 53 129 -161 175 -122 l 175 796 l 431 796 l 431 47 "},"ĵ":{"ha":521,"x_min":0,"x_max":0,"o":"m 154 935 l 154 1151 l 450 1151 l 450 935 m 431 47 b 33 -350 431 -210 278 -350 b -28 -344 3 -350 -15 -347 l -28 -154 l -19 -149 b 175 53 129 -161 175 -122 l 175 796 l 431 796 l 431 47 "},"k":{"ha":1260,"x_min":0,"x_max":0,"o":"m 519 333 l 354 217 l 354 0 l 97 0 l 97 1003 l 354 1003 l 354 469 l 825 796 l 1163 796 l 1167 790 l 704 464 l 1260 6 l 1256 0 l 906 0 "},"ķ":{"ha":1260,"x_min":0,"x_max":0,"o":"m 519 333 l 354 217 l 354 0 l 97 0 l 97 1003 l 354 1003 l 354 469 l 825 796 l 1163 796 l 1167 790 l 704 464 l 1260 6 l 1256 0 l 906 0 "},"l":{"ha":451,"x_min":0,"x_max":0,"o":"m 97 0 l 97 1003 l 354 1003 l 354 0 "},"ĺ":{"ha":451,"x_min":0,"x_max":0,"o":"m 97 0 l 97 1003 l 354 1003 l 354 0 "},"ľ":{"ha":632,"x_min":0,"x_max":0,"o":"m 97 0 l 97 1003 l 354 1003 l 354 0 "},"ļ":{"ha":451,"x_min":0,"x_max":0,"o":"m 97 0 l 97 1003 l 354 1003 l 354 0 "},"ŀ":{"ha":451,"x_min":0,"x_max":0,"o":"m 97 0 l 97 1003 l 354 1003 l 354 0 "},"ł":{"ha":451,"x_min":0,"x_max":0,"o":"m 97 0 l 97 1003 l 354 1003 l 354 0 "},"m":{"ha":2044,"x_min":0,"x_max":0,"o":"m 354 0 l 97 0 l 97 796 l 354 796 l 354 669 b 717 813 439 763 568 813 b 1090 631 890 813 1021 747 b 1514 813 1181 749 1338 813 b 1954 406 1790 813 1954 661 l 1954 0 l 1697 0 l 1697 364 b 1440 625 1697 543 1624 625 b 1147 313 1242 625 1147 528 l 1147 0 l 890 0 l 890 364 b 642 625 890 546 811 625 b 354 313 447 625 354 521 "},"n":{"ha":1329,"x_min":0,"x_max":0,"o":"m 354 0 l 97 0 l 97 796 l 354 796 l 354 667 b 756 813 442 760 578 813 b 1239 400 1068 813 1239 667 l 1239 0 l 982 0 l 982 333 b 692 625 982 543 890 625 b 354 282 481 625 354 522 "},"ń":{"ha":1329,"x_min":0,"x_max":0,"o":"m 354 0 l 97 0 l 97 796 l 354 796 l 354 667 b 756 813 442 760 578 813 b 1239 400 1068 813 1239 667 l 1239 0 l 982 0 l 982 333 b 692 625 982 543 890 625 b 354 282 481 625 354 522 "},"ň":{"ha":1329,"x_min":0,"x_max":0,"o":"m 354 0 l 97 0 l 97 796 l 354 796 l 354 667 b 756 813 442 760 578 813 b 1239 400 1068 813 1239 667 l 1239 0 l 982 0 l 982 333 b 692 625 982 543 890 625 b 354 282 481 625 354 522 "},"ņ":{"ha":1329,"x_min":0,"x_max":0,"o":"m 354 0 l 97 0 l 97 796 l 354 796 l 354 667 b 756 813 442 760 578 813 b 1239 400 1068 813 1239 667 l 1239 0 l 982 0 l 982 333 b 692 625 982 543 890 625 b 354 282 481 625 354 522 "},"ŋ":{"ha":1329,"x_min":0,"x_max":0,"o":"m 982 -322 l 982 333 b 692 625 982 543 890 625 b 354 282 481 625 354 522 l 354 0 l 97 0 l 97 796 l 354 796 l 354 667 b 756 813 442 760 578 813 b 1239 400 1068 813 1239 667 l 1239 -322 "},"ñ":{"ha":1329,"x_min":0,"x_max":0,"o":"m 354 0 l 97 0 l 97 796 l 354 796 l 354 667 b 756 813 442 760 578 813 b 1239 400 1068 813 1239 667 l 1239 0 l 982 0 l 982 333 b 692 625 982 543 890 625 b 354 282 481 625 354 522 "},"o":{"ha":1308,"x_min":0,"x_max":0,"o":"m 1260 397 b 653 -17 1260 146 1029 -17 b 49 397 276 -17 49 146 b 653 813 49 650 276 813 b 1260 397 1029 813 1260 650 m 306 397 b 653 171 306 249 429 171 b 1003 397 879 171 1003 249 b 653 625 1003 546 879 625 b 306 397 429 625 306 546 "},"ó":{"ha":1308,"x_min":0,"x_max":0,"o":"m 1260 397 b 653 -17 1260 146 1029 -17 b 49 397 276 -17 49 146 b 653 813 49 650 276 813 b 1260 397 1029 813 1260 650 m 306 397 b 653 171 306 249 429 171 b 1003 397 879 171 1003 249 b 653 625 1003 546 879 625 b 306 397 429 625 306 546 "},"ŏ":{"ha":1308,"x_min":0,"x_max":0,"o":"m 1260 397 b 653 -17 1260 146 1029 -17 b 49 397 276 -17 49 146 b 653 813 49 650 276 813 b 1260 397 1029 813 1260 650 m 306 397 b 653 171 306 249 429 171 b 1003 397 879 171 1003 249 b 653 625 1003 546 879 625 b 306 397 429 625 306 546 "},"ô":{"ha":1308,"x_min":0,"x_max":0,"o":"m 1260 397 b 653 -17 1260 146 1029 -17 b 49 397 276 -17 49 146 b 653 813 49 650 276 813 b 1260 397 1029 813 1260 650 m 306 397 b 653 171 306 249 429 171 b 1003 397 879 171 1003 249 b 653 625 1003 546 879 625 b 306 397 429 625 306 546 "},"ö":{"ha":1308,"x_min":0,"x_max":0,"o":"m 1260 397 b 653 -17 1260 146 1029 -17 b 49 397 276 -17 49 146 b 653 813 49 650 276 813 b 1260 397 1029 813 1260 650 m 306 397 b 653 171 306 249 429 171 b 1003 397 879 171 1003 249 b 653 625 1003 546 879 625 b 306 397 429 625 306 546 "},"ò":{"ha":1308,"x_min":0,"x_max":0,"o":"m 1260 397 b 653 -17 1260 146 1029 -17 b 49 397 276 -17 49 146 b 653 813 49 650 276 813 b 1260 397 1029 813 1260 650 m 306 397 b 653 171 306 249 429 171 b 1003 397 879 171 1003 249 b 653 625 1003 546 879 625 b 306 397 429 625 306 546 "},"ő":{"ha":1308,"x_min":0,"x_max":0,"o":"m 1260 397 b 653 -17 1260 146 1029 -17 b 49 397 276 -17 49 146 b 653 813 49 650 276 813 b 1260 397 1029 813 1260 650 m 306 397 b 653 171 306 249 429 171 b 1003 397 879 171 1003 249 b 653 625 1003 546 879 625 b 306 397 429 625 306 546 "},"ō":{"ha":1308,"x_min":0,"x_max":0,"o":"m 1260 397 b 653 -17 1260 146 1029 -17 b 49 397 276 -17 49 146 b 653 813 49 650 276 813 b 1260 397 1029 813 1260 650 m 306 397 b 653 171 306 249 429 171 b 1003 397 879 171 1003 249 b 653 625 1003 546 879 625 b 306 397 429 625 306 546 "},"ø":{"ha":1308,"x_min":0,"x_max":0,"o":"m 1260 397 b 653 -17 1260 146 1029 -17 b 49 397 276 -17 49 146 b 653 813 49 650 276 813 b 1260 397 1029 813 1260 650 m 306 397 b 653 171 306 249 429 171 b 1003 397 879 171 1003 249 b 653 625 1003 546 879 625 b 306 397 429 625 306 546 "},"õ":{"ha":1308,"x_min":0,"x_max":0,"o":"m 1260 397 b 653 -17 1260 146 1029 -17 b 49 397 276 -17 49 146 b 653 813 49 650 276 813 b 1260 397 1029 813 1260 650 m 306 397 b 653 171 306 249 429 171 b 1003 397 879 171 1003 249 b 653 625 1003 546 879 625 b 306 397 429 625 306 546 "},"p":{"ha":1357,"x_min":0,"x_max":0,"o":"m 354 399 b 703 171 354 253 479 171 b 1051 399 928 171 1051 253 b 703 625 1051 544 928 625 b 354 399 478 625 354 544 m 756 -17 b 354 101 578 -17 443 25 l 354 -322 l 97 -322 l 97 796 l 354 796 l 354 676 b 765 813 447 764 589 813 b 1308 389 1092 813 1308 647 b 756 -17 1308 133 1094 -17 "},"q":{"ha":1357,"x_min":0,"x_max":0,"o":"m 1003 101 b 601 -17 914 25 779 -17 b 49 389 263 -17 49 133 b 592 813 49 647 265 813 b 1003 676 768 813 910 764 l 1003 796 l 1260 796 l 1260 -322 l 1003 -322 m 654 171 b 1003 399 878 171 1003 253 b 654 625 1003 544 879 625 b 306 399 429 625 306 544 b 654 171 306 253 429 171 "},"r":{"ha":926,"x_min":0,"x_max":0,"o":"m 354 0 l 97 0 l 97 796 l 354 796 l 354 674 b 753 813 447 764 590 813 b 857 806 792 813 824 810 l 857 597 l 850 594 b 704 610 806 606 746 610 b 354 279 472 610 354 488 "},"ŕ":{"ha":926,"x_min":0,"x_max":0,"o":"m 354 0 l 97 0 l 97 796 l 354 796 l 354 674 b 753 813 447 764 590 813 b 857 806 792 813 824 810 l 857 597 l 850 594 b 704 610 806 606 746 610 b 354 279 472 610 354 488 "},"ř":{"ha":926,"x_min":0,"x_max":0,"o":"m 354 0 l 97 0 l 97 796 l 354 796 l 354 674 b 753 813 447 764 590 813 b 857 806 792 813 824 810 l 857 597 l 850 594 b 704 610 806 606 746 610 b 354 279 472 610 354 488 "},"ŗ":{"ha":926,"x_min":0,"x_max":0,"o":"m 354 0 l 97 0 l 97 796 l 354 796 l 354 674 b 753 813 447 764 590 813 b 857 806 792 813 824 810 l 857 597 l 850 594 b 704 610 806 606 746 610 b 354 279 472 610 354 488 "},"s":{"ha":1243,"x_min":0,"x_max":0,"o":"m 1181 254 b 640 -18 1181 78 1011 -18 b 74 61 432 -18 214 13 l 74 257 l 81 260 b 633 158 267 183 433 158 b 924 236 844 158 924 181 b 69 556 924 375 69 199 b 608 813 69 725 249 813 b 1099 749 786 813 949 792 l 1099 558 l 1089 556 b 575 636 932 608 779 636 b 326 572 396 636 326 618 b 1181 254 326 436 1181 610 "},"ś":{"ha":1243,"x_min":0,"x_max":0,"o":"m 1181 254 b 640 -18 1181 78 1011 -18 b 74 61 432 -18 214 13 l 74 257 l 81 260 b 633 158 267 183 433 158 b 924 236 844 158 924 181 b 69 556 924 375 69 199 b 608 813 69 725 249 813 b 1099 749 786 813 949 792 l 1099 558 l 1089 556 b 575 636 932 608 779 636 b 326 572 396 636 326 618 b 1181 254 326 436 1181 610 "},"š":{"ha":1243,"x_min":0,"x_max":0,"o":"m 1181 254 b 640 -18 1181 78 1011 -18 b 74 61 432 -18 214 13 l 74 257 l 81 260 b 633 158 267 183 433 158 b 924 236 844 158 924 181 b 69 556 924 375 69 199 b 608 813 69 725 249 813 b 1099 749 786 813 949 792 l 1099 558 l 1089 556 b 575 636 932 608 779 636 b 326 572 396 636 326 618 b 1181 254 326 436 1181 610 "},"ŝ":{"ha":1243,"x_min":0,"x_max":0,"o":"m 1181 254 b 640 -18 1181 78 1011 -18 b 74 61 432 -18 214 13 l 74 257 l 81 260 b 633 158 267 183 433 158 b 924 236 844 158 924 181 b 69 556 924 375 69 199 b 608 813 69 725 249 813 b 1099 749 786 813 949 792 l 1099 558 l 1089 556 b 575 636 932 608 779 636 b 326 572 396 636 326 618 b 1181 254 326 436 1181 610 "},"ş":{"ha":1243,"x_min":0,"x_max":0,"o":"m 1181 254 b 640 -18 1181 78 1011 -18 b 74 61 432 -18 214 13 l 74 257 l 81 260 b 633 158 267 183 433 158 b 924 236 844 158 924 181 b 69 556 924 375 69 199 b 608 813 69 725 249 813 b 1099 749 786 813 949 792 l 1099 558 l 1089 556 b 575 636 932 608 779 636 b 326 572 396 636 326 618 b 1181 254 326 436 1181 610 "},"ș":{"ha":1243,"x_min":0,"x_max":0,"o":"m 1181 254 b 640 -18 1181 78 1011 -18 b 74 61 432 -18 214 13 l 74 257 l 81 260 b 633 158 267 183 433 158 b 924 236 844 158 924 181 b 69 556 924 375 69 199 b 608 813 69 725 249 813 b 1099 749 786 813 949 792 l 1099 558 l 1089 556 b 575 636 932 608 779 636 b 326 572 396 636 326 618 b 1181 254 326 436 1181 610 "},"t":{"ha":685,"x_min":0,"x_max":0,"o":"m 671 -14 b 597 -17 649 -15 625 -17 b 182 336 308 -17 182 97 l 182 618 l 14 618 l 14 779 l 182 779 l 182 961 l 439 961 l 439 779 l 671 779 l 671 618 l 439 618 l 439 342 b 628 169 439 214 492 169 l 664 169 l 671 165 l 671 -14 "},"ť":{"ha":685,"x_min":0,"x_max":0,"o":"m 671 -14 b 597 -17 649 -15 625 -17 b 182 336 308 -17 182 97 l 182 618 l 14 618 l 14 779 l 182 779 l 182 961 l 439 961 l 439 779 l 671 779 l 671 618 l 439 618 l 439 342 b 628 169 439 214 492 169 l 664 169 l 671 165 l 671 -14 "},"ŧ":{"ha":685,"x_min":0,"x_max":0,"o":"m 671 -14 b 597 -17 649 -15 625 -17 b 182 336 308 -17 182 97 l 182 618 l 14 618 l 14 779 l 182 779 l 182 961 l 439 961 l 439 779 l 671 779 l 671 618 l 439 618 l 439 342 b 628 169 439 214 492 169 l 664 169 l 671 165 l 671 -14 "},"ţ":{"ha":685,"x_min":0,"x_max":0,"o":"m 671 -14 b 597 -17 649 -15 625 -17 b 182 336 308 -17 182 97 l 182 618 l 14 618 l 14 779 l 182 779 l 182 961 l 439 961 l 439 779 l 671 779 l 671 618 l 439 618 l 439 342 b 628 169 439 214 492 169 l 664 169 l 671 165 l 671 -14 "},"ț":{"ha":685,"x_min":0,"x_max":0,"o":"m 671 -14 b 597 -17 649 -15 625 -17 b 182 336 308 -17 182 97 l 182 618 l 14 618 l 14 779 l 182 779 l 182 961 l 439 961 l 439 779 l 671 779 l 671 618 l 439 618 l 439 342 b 628 169 439 214 492 169 l 664 169 l 671 165 l 671 -14 "},"u":{"ha":1329,"x_min":0,"x_max":0,"o":"m 975 122 b 571 -17 881 32 738 -17 b 90 429 263 -17 90 143 l 90 796 l 347 796 l 347 465 b 639 171 347 265 440 171 b 975 525 850 171 975 272 l 975 796 l 1232 796 l 1232 0 l 975 0 "},"ú":{"ha":1329,"x_min":0,"x_max":0,"o":"m 975 122 b 571 -17 881 32 738 -17 b 90 429 263 -17 90 143 l 90 796 l 347 796 l 347 465 b 639 171 347 265 440 171 b 975 525 850 171 975 272 l 975 796 l 1232 796 l 1232 0 l 975 0 "},"û":{"ha":1329,"x_min":0,"x_max":0,"o":"m 975 122 b 571 -17 881 32 738 -17 b 90 429 263 -17 90 143 l 90 796 l 347 796 l 347 465 b 639 171 347 265 440 171 b 975 525 850 171 975 272 l 975 796 l 1232 796 l 1232 0 l 975 0 "},"ü":{"ha":1329,"x_min":0,"x_max":0,"o":"m 975 122 b 571 -17 881 32 738 -17 b 90 429 263 -17 90 143 l 90 796 l 347 796 l 347 465 b 639 171 347 265 440 171 b 975 525 850 171 975 272 l 975 796 l 1232 796 l 1232 0 l 975 0 "},"ù":{"ha":1329,"x_min":0,"x_max":0,"o":"m 975 122 b 571 -17 881 32 738 -17 b 90 429 263 -17 90 143 l 90 796 l 347 796 l 347 465 b 639 171 347 265 440 171 b 975 525 850 171 975 272 l 975 796 l 1232 796 l 1232 0 l 975 0 "},"ű":{"ha":1329,"x_min":0,"x_max":0,"o":"m 975 122 b 571 -17 881 32 738 -17 b 90 429 263 -17 90 143 l 90 796 l 347 796 l 347 465 b 639 171 347 265 440 171 b 975 525 850 171 975 272 l 975 796 l 1232 796 l 1232 0 l 975 0 "},"ů":{"ha":1329,"x_min":0,"x_max":0,"o":"m 975 122 b 571 -17 881 32 738 -17 b 90 429 263 -17 90 143 l 90 796 l 347 796 l 347 465 b 639 171 347 265 440 171 b 975 525 850 171 975 272 l 975 796 l 1232 796 l 1232 0 l 975 0 "},"ũ":{"ha":1329,"x_min":0,"x_max":0,"o":"m 975 122 b 571 -17 881 32 738 -17 b 90 429 263 -17 90 143 l 90 796 l 347 796 l 347 465 b 639 171 347 265 440 171 b 975 525 850 171 975 272 l 975 796 l 1232 796 l 1232 0 l 975 0 "},"ū":{"ha":1329,"x_min":0,"x_max":0,"o":"m 975 122 b 571 -17 881 32 738 -17 b 90 429 263 -17 90 143 l 90 796 l 347 796 l 347 465 b 639 171 347 265 440 171 b 975 525 850 171 975 272 l 975 796 l 1232 796 l 1232 0 l 975 0 "},"ų":{"ha":1329,"x_min":0,"x_max":0,"o":"m 975 122 b 571 -17 881 32 738 -17 b 90 429 263 -17 90 143 l 90 796 l 347 796 l 347 465 b 639 171 347 265 440 171 b 975 525 850 171 975 272 l 975 796 l 1232 796 l 1232 0 l 975 0 "},"v":{"ha":1263,"x_min":0,"x_max":0,"o":"m 0 790 l 4 796 l 281 796 l 632 193 l 985 796 l 1258 796 l 1263 790 l 774 0 l 490 0 "},"w":{"ha":1774,"x_min":0,"x_max":0,"o":"m 0 790 l 4 796 l 283 796 l 525 249 l 764 796 l 1011 796 l 1249 247 l 1493 796 l 1769 796 l 1774 790 l 1388 0 l 1128 0 l 885 536 l 642 0 l 386 0 "},"ẃ":{"ha":1774,"x_min":0,"x_max":0,"o":"m 0 790 l 4 796 l 283 796 l 525 249 l 764 796 l 1011 796 l 1249 247 l 1493 796 l 1769 796 l 1774 790 l 1388 0 l 1128 0 l 885 536 l 642 0 l 386 0 "},"ŵ":{"ha":1774,"x_min":0,"x_max":0,"o":"m 0 790 l 4 796 l 283 796 l 525 249 l 764 796 l 1011 796 l 1249 247 l 1493 796 l 1769 796 l 1774 790 l 1388 0 l 1128 0 l 885 536 l 642 0 l 386 0 "},"ẅ":{"ha":1774,"x_min":0,"x_max":0,"o":"m 0 790 l 4 796 l 283 796 l 525 249 l 764 796 l 1011 796 l 1249 247 l 1493 796 l 1769 796 l 1774 790 l 1388 0 l 1128 0 l 885 536 l 642 0 l 386 0 "},"ẁ":{"ha":1774,"x_min":0,"x_max":0,"o":"m 0 790 l 4 796 l 283 796 l 525 249 l 764 796 l 1011 796 l 1249 247 l 1493 796 l 1769 796 l 1774 790 l 1388 0 l 1128 0 l 885 536 l 642 0 l 386 0 "},"x":{"ha":1211,"x_min":0,"x_max":0,"o":"m 442 407 l 19 790 l 24 796 l 342 796 l 606 554 l 869 796 l 1188 796 l 1192 790 l 769 407 l 1211 6 l 1207 0 l 889 0 l 606 260 l 322 0 l 4 0 l 0 6 "},"y":{"ha":1268,"x_min":0,"x_max":0,"o":"m 242 -350 l 242 -162 l 250 -157 l 278 -157 b 504 -28 404 -157 444 -128 l 521 0 l 519 0 l 0 790 l 4 796 l 290 796 l 649 238 l 994 796 l 1264 796 l 1268 790 l 688 -140 b 300 -350 594 -290 488 -350 "},"ý":{"ha":1268,"x_min":0,"x_max":0,"o":"m 242 -350 l 242 -162 l 250 -157 l 278 -157 b 504 -28 404 -157 444 -128 l 521 0 l 519 0 l 0 790 l 4 796 l 290 796 l 649 238 l 994 796 l 1264 796 l 1268 790 l 688 -140 b 300 -350 594 -290 488 -350 "},"ÿ":{"ha":1268,"x_min":0,"x_max":0,"o":"m 242 -350 l 242 -162 l 250 -157 l 278 -157 b 504 -28 404 -157 444 -128 l 521 0 l 519 0 l 0 790 l 4 796 l 290 796 l 649 238 l 994 796 l 1264 796 l 1268 790 l 688 -140 b 300 -350 594 -290 488 -350 "},"ỳ":{"ha":1268,"x_min":0,"x_max":0,"o":"m 242 -350 l 242 -162 l 250 -157 l 278 -157 b 504 -28 404 -157 444 -128 l 521 0 l 519 0 l 0 790 l 4 796 l 290 796 l 649 238 l 994 796 l 1264 796 l 1268 790 l 688 -140 b 300 -350 594 -290 488 -350 "},"ŷ":{"ha":1268,"x_min":0,"x_max":0,"o":"m 242 -350 l 242 -162 l 250 -157 l 278 -157 b 504 -28 404 -157 444 -128 l 521 0 l 519 0 l 0 790 l 4 796 l 290 796 l 649 238 l 994 796 l 1264 796 l 1268 790 l 688 -140 b 300 -350 594 -290 488 -350 "},"z":{"ha":1282,"x_min":0,"x_max":0,"o":"m 97 0 l 97 160 l 757 608 l 119 608 l 119 796 l 1165 796 l 1165 636 l 506 188 l 1185 188 l 1185 0 "},"ź":{"ha":1282,"x_min":0,"x_max":0,"o":"m 97 0 l 97 160 l 757 608 l 119 608 l 119 796 l 1165 796 l 1165 636 l 506 188 l 1185 188 l 1185 0 "},"ž":{"ha":1282,"x_min":0,"x_max":0,"o":"m 97 0 l 97 160 l 757 608 l 119 608 l 119 796 l 1165 796 l 1165 636 l 506 188 l 1185 188 l 1185 0 "},"ż":{"ha":1282,"x_min":0,"x_max":0,"o":"m 97 0 l 97 160 l 757 608 l 119 608 l 119 796 l 1165 796 l 1165 636 l 506 188 l 1185 188 l 1185 0 "},",":{"ha":417,"x_min":0,"x_max":0,"o":"m 69 -246 l 149 0 l 71 0 l 71 246 l 347 246 l 347 44 l 163 -246 "},".":{"ha":417,"x_min":0,"x_max":0,"o":"m 69 0 l 69 249 l 347 249 l 347 0 "},"-":{"ha":833,"x_min":0,"x_max":0,"o":"m 69 313 l 69 500 l 764 500 l 764 313 "}}}
